<svg width="1600" height="900" viewBox="0 0 1600 900" fill="none" xmlns="http://www.w3.org/2000/svg">
  <rect width="1600" height="900" fill="#F3F3F1"/>
  <rect x="160" y="140" width="1200" height="520" rx="24" fill="#E2E2DF"/>
  <rect x="260" y="220" width="440" height="320" rx="16" fill="#D1D1CC"/>
  <rect x="760" y="220" width="420" height="320" rx="16" fill="#C7C7C2"/>
  <rect x="340" y="300" width="140" height="40" rx="10" fill="#B2B2AD"/>
  <rect x="340" y="360" width="220" height="40" rx="10" fill="#B2B2AD"/>
  <rect x="380" y="460" width="180" height="20" rx="8" fill="#A3A39F"/>
  <rect x="860" y="320" width="260" height="28" rx="12" fill="#B2B2AD"/>
  <rect x="860" y="380" width="180" height="28" rx="12" fill="#B2B2AD"/>
  <rect x="860" y="440" width="230" height="20" rx="10" fill="#A3A39F"/>
  <rect x="160" y="680" width="1300" height="110" rx="22" fill="#E9E9E6"/>
  <rect x="390" y="560" width="140" height="80" rx="18" fill="#D1D1CC"/>
  <rect x="730" y="520" width="180" height="120" rx="18" fill="#EBEBE8"/>
  <rect x="1200" y="550" width="140" height="90" rx="18" fill="#D1D1CC"/>
</svg>
